<svg width="164" height="27" viewBox="0 0 164 27" fill="none" xmlns="http://www.w3.org/2000/svg">
<g clip-path="url(#clip0_19_31)">
<path d="M34.1961 27.0151C31.7816 27.2028 29.3701 26.6151 27.306 25.3361C26.5513 24.7187 25.9565 23.9252 25.5729 23.024C25.1893 22.1228 25.0284 21.1409 25.1042 20.163C25.1045 19.5876 25.1698 19.0142 25.2989 18.4538H30.3616C30.3616 18.7411 30.3616 18.9983 30.2718 19.2554C30.1819 19.5126 30.2718 19.7243 30.2718 19.9058C30.2202 20.385 30.318 20.8685 30.5516 21.2888C30.7852 21.7091 31.143 22.0453 31.5749 22.2504C32.6938 22.6969 33.8927 22.9029 35.0949 22.8554H37.087C38.4216 22.9732 39.7588 22.6608 40.9065 21.963C41.3298 21.5326 41.6508 21.0109 41.8453 20.4371C42.0399 19.8633 42.1031 19.2524 42.0299 18.6504V3.94788H47.1077V18.6504C47.16 20.2523 46.8688 21.8467 46.2539 23.3243C45.6729 24.5732 44.6534 25.5597 43.393 26.0924C41.66 26.7835 39.8022 27.0979 37.9408 27.0151H34.1961Z" fill="black"/>
<path d="M48.98 26.8487L59.1953 3.94788H67.0291L77.2445 26.8487H71.7174L69.5605 22.0084H56.649L54.4921 26.8487H48.98ZM58.4914 17.7731H67.7181L63.3144 7.88064H62.91L58.4914 17.7731Z" fill="black"/>
<path d="M84.3442 26.8487V18.6806L72.3613 3.94788H78.6673L86.9354 14.3243L95.1886 3.94788H101.465L89.4818 18.6504V26.8487H84.3442Z" fill="black"/>
<path d="M137.728 26.8487V3.94788H142.865L158.907 20.3899V3.94788H164.045V26.8487H158.907L142.865 10.3613V26.8487H137.728Z" fill="black"/>
<path d="M0 12.4185H19.4721C19.5357 12.4185 19.5966 12.444 19.6416 12.4894C19.6865 12.5347 19.7117 12.5963 19.7117 12.6605V27.0151H16.1169V15.3983H11.8031V0H8.26815V15.3983H3.57987V27.0151H0V12.4185Z" fill="#FF00DE"/>
<path d="M129.729 6.77644C127.513 4.82013 124.312 3.84198 120.128 3.84198H114.421C110.227 3.84198 107.022 4.82013 104.805 6.77644C102.665 9.15181 101.479 12.2476 101.479 15.4588C101.479 18.67 102.665 21.7658 104.805 24.1411C107.477 26.2415 110.818 27.2802 114.197 27.0605H120.293C123.686 27.2844 127.043 26.2459 129.729 24.1411C131.879 21.7705 133.071 18.673 133.071 15.4588C133.071 12.2446 131.879 9.14704 129.729 6.77644ZM127.737 17.5159C127.642 18.3369 127.373 19.1276 126.95 19.8348C126.526 20.5419 125.957 21.149 125.281 21.6151C123.609 22.5682 121.7 23.0145 119.784 22.9008H119.229V17.5159H115.11V22.9008H114.856C112.915 23.0172 110.982 22.5711 109.284 21.6151C108.604 21.152 108.031 20.546 107.604 19.8385C107.177 19.131 106.907 18.3387 106.812 17.5159H115.11V13.3563H106.812C106.913 12.5394 107.186 11.7538 107.612 11.0521C108.039 10.3503 108.608 9.74865 109.284 9.28737C110.955 8.34794 112.856 7.90731 114.766 8.01678H119.784C121.693 7.91146 123.593 8.35183 125.266 9.28737C125.939 9.75079 126.507 10.353 126.933 11.0543C127.359 11.7557 127.633 12.5402 127.737 13.3563H119.229V17.5159H127.737Z" fill="black"/>
<path d="M13.5706 18.242H6.20117V24.2773H13.5706V18.242Z" fill="#FF00DE"/>
</g>
<defs>
<clipPath id="clip0_19_31">
<rect width="164" height="27" fill="white"/>
</clipPath>
</defs>
</svg>
