<svg width="164" height="27" viewBox="0 0 164 27" fill="none" xmlns="http://www.w3.org/2000/svg">
<g clip-path="url(#clip0_1_40)">
<path d="M34.1961 27.015C31.7816 27.2026 29.3701 26.615 27.306 25.336C26.5513 24.7185 25.9565 23.925 25.5729 23.0238C25.1893 22.1227 25.0284 21.1408 25.1042 20.1629C25.1045 19.5875 25.1698 19.014 25.2989 18.4536H30.3616C30.3616 18.741 30.3616 18.9982 30.2718 19.2553C30.1819 19.5125 30.2718 19.7242 30.2718 19.9057C30.2202 20.3849 30.318 20.8684 30.5516 21.2887C30.7852 21.709 31.143 22.0452 31.5749 22.2503C32.6938 22.6967 33.8927 22.9028 35.0949 22.8553H37.087C38.4216 22.9731 39.7588 22.6606 40.9065 21.9629C41.3298 21.5325 41.6508 21.0108 41.8453 20.437C42.0399 19.8632 42.1031 19.2523 42.0299 18.6503V3.94775H47.1077V18.6503C47.16 20.2522 46.8688 21.8466 46.2539 23.3242C45.6729 24.5731 44.6534 25.5596 43.393 26.0923C41.66 26.7834 39.8022 27.0978 37.9408 27.015H34.1961Z" fill="white"/>
<path d="M48.98 26.8486L59.1953 3.94775H67.0291L77.2445 26.8486H71.7174L69.5605 22.0083H56.649L54.4921 26.8486H48.98ZM58.4914 17.773H67.7181L63.3144 7.88051H62.91L58.4914 17.773Z" fill="white"/>
<path d="M84.3442 26.8486V18.6805L72.3613 3.94775H78.6673L86.9354 14.3242L95.1886 3.94775H101.465L89.4818 18.6503V26.8486H84.3442Z" fill="white"/>
<path d="M137.728 26.8486V3.94775H142.865L158.907 20.3898V3.94775H164.045V26.8486H158.907L142.865 10.3612V26.8486H137.728Z" fill="white"/>
<path d="M0 12.4185H19.4721C19.5357 12.4185 19.5966 12.444 19.6416 12.4894C19.6865 12.5347 19.7117 12.5963 19.7117 12.6605V27.0151H16.1169V15.3983H11.8031V0H8.26815V15.3983H3.57987V27.0151H0V12.4185Z" fill="#00FF00"/>
<path d="M129.729 6.77625C127.513 4.81995 124.312 3.8418 120.128 3.8418H114.421C110.227 3.8418 107.022 4.81995 104.805 6.77625C102.665 9.15162 101.479 12.2474 101.479 15.4586C101.479 18.6698 102.665 21.7656 104.805 24.141C107.477 26.2413 110.818 27.28 114.197 27.0603H120.293C123.686 27.2842 127.043 26.2457 129.729 24.141C131.879 21.7704 133.071 18.6728 133.071 15.4586C133.071 12.2445 131.879 9.14685 129.729 6.77625ZM127.737 17.5158C127.642 18.3367 127.373 19.1274 126.95 19.8346C126.526 20.5417 125.957 21.1488 125.281 21.6149C123.609 22.568 121.7 23.0144 119.784 22.9006H119.229V17.5158H115.11V22.9006H114.856C112.915 23.017 110.982 22.5709 109.284 21.6149C108.604 21.1518 108.031 20.5458 107.604 19.8383C107.177 19.1308 106.907 18.3385 106.812 17.5158H115.11V13.3561H106.812C106.913 12.5392 107.186 11.7536 107.612 11.0519C108.039 10.3501 108.608 9.74847 109.284 9.28718C110.955 8.34776 112.856 7.90713 114.766 8.0166H119.784C121.693 7.91128 123.593 8.35164 125.266 9.28718C125.939 9.75061 126.507 10.3528 126.933 11.0542C127.359 11.7555 127.633 12.5401 127.737 13.3561H119.229V17.5158H127.737Z" fill="white"/>
<path d="M13.5706 18.2422H6.20117V24.2775H13.5706V18.2422Z" fill="#00FF00"/>
</g>
<defs>
<clipPath id="clip0_1_40">
<rect width="164" height="27" fill="white"/>
</clipPath>
</defs>
</svg>
