<svg width="239" height="39" viewBox="0 0 239 39" fill="none" xmlns="http://www.w3.org/2000/svg">
<g clip-path="url(#clip0_38_335)">
<path d="M49.8346 39.0215C46.3158 39.2925 42.8015 38.4437 39.7935 36.5963C38.6935 35.7044 37.8267 34.5582 37.2677 33.2565C36.7087 31.9548 36.4743 30.5366 36.5847 29.124C36.5851 28.2929 36.6804 27.4646 36.8685 26.6551H44.2465C44.2465 27.0702 44.2465 27.4416 44.1155 27.8131C43.9845 28.1845 44.1155 28.4904 44.1155 28.7525C44.0403 29.4447 44.1829 30.1431 44.5233 30.7502C44.8638 31.3573 45.3851 31.8429 46.0146 32.1391C47.6452 32.784 49.3923 33.0817 51.1443 33.0131H54.0475C55.9924 33.1832 57.9411 32.7319 59.6137 31.724C60.2305 31.1024 60.6983 30.3488 60.9819 29.5199C61.2655 28.6911 61.3574 27.8087 61.2509 26.9391V5.70215H68.6507V26.9391C68.727 29.253 68.3026 31.556 67.4065 33.6904C66.5599 35.4943 65.0741 36.9192 63.2373 37.6887C60.7117 38.6869 58.0044 39.1411 55.2917 39.0215H49.8346Z" fill="white"/>
<path d="M71.3789 38.7811L86.2659 5.70215H97.6822L112.569 38.7811H104.515L101.371 31.7896H82.5551L79.4118 38.7811H71.3789ZM85.24 25.6719H98.6863L92.2688 11.3828H91.6794L85.24 25.6719Z" fill="white"/>
<path d="M122.916 38.7811V26.9828L105.454 5.70215H114.643L126.693 20.6904L138.72 5.70215H147.866L130.404 26.9391V38.7811H122.916Z" fill="white"/>
<path d="M200.713 38.7811V5.70215H208.2L231.578 29.4517V5.70215H239.066V38.7811H231.578L208.2 14.966V38.7811H200.713Z" fill="white"/>
<path d="M0 17.9378H28.377C28.4696 17.9378 28.5585 17.9746 28.624 18.0402C28.6895 18.1057 28.7263 18.1947 28.7263 18.2874V39.0218H23.4874V22.242H17.2008V0H12.0493V22.242H5.217V39.0218H0V17.9378Z" fill="#FF00DE"/>
<path d="M189.057 9.78847C185.826 6.9627 181.162 5.5498 175.065 5.5498H166.748C160.636 5.5498 155.965 6.9627 152.734 9.78847C149.616 13.2196 147.888 17.6913 147.888 22.3297C147.888 26.968 149.616 31.4397 152.734 34.8708C156.627 37.9047 161.497 39.405 166.421 39.0876H175.305C180.249 39.411 185.141 37.911 189.057 34.8708C192.189 31.4466 193.926 26.9723 193.926 22.3297C193.926 17.687 192.189 13.2127 189.057 9.78847ZM186.153 25.3011C186.015 26.4869 185.623 27.629 185.006 28.6505C184.388 29.6719 183.559 30.5488 182.574 31.2221C180.137 32.5987 177.356 33.2435 174.563 33.0792H173.755V25.3011H167.752V33.0792H167.381C164.553 33.2474 161.735 32.603 159.261 31.2221C158.27 30.5532 157.435 29.6778 156.813 28.6558C156.191 27.6339 155.798 26.4895 155.659 25.3011H167.752V19.2927H155.659C155.807 18.1128 156.204 16.978 156.825 15.9644C157.446 14.9507 158.277 14.0817 159.261 13.4154C161.696 12.0584 164.467 11.4219 167.25 11.5801H174.563C177.345 11.4279 180.114 12.064 182.552 13.4154C183.533 14.0848 184.361 14.9546 184.982 15.9677C185.603 16.9807 186.002 18.114 186.153 19.2927H173.755V25.3011H186.153Z" fill="white"/>
<path d="M19.7767 26.3496H9.03711V35.0673H19.7767V26.3496Z" fill="#FF00DE"/>
</g>
<defs>
<clipPath id="clip0_38_335">
<rect width="239" height="39" fill="white"/>
</clipPath>
</defs>
</svg>
