<svg width="115" height="30" viewBox="0 0 115 30" fill="none" xmlns="http://www.w3.org/2000/svg">
<path d="M43.3435 17.7722V18.7177C43.3453 19.1791 43.2537 19.6361 43.0741 20.061C42.9002 20.4788 42.6511 20.8609 42.3391 21.1882C42.0247 21.5189 41.6495 21.7858 41.2343 21.974C40.8075 22.1688 40.3435 22.2677 39.8746 22.2638C39.4445 22.2649 39.0161 22.2087 38.6007 22.0968C38.1758 21.984 37.781 21.7786 37.4444 21.4951C37.0861 21.191 36.7971 20.8133 36.5968 20.3876C36.3569 19.8474 36.243 19.2595 36.2636 18.6686V10.2257C36.2554 9.74853 36.3385 9.27418 36.5086 8.82841C36.6744 8.40929 36.9246 8.02892 37.2436 7.71104C37.5656 7.39275 37.9479 7.14226 38.368 6.97432C38.8284 6.79084 39.3204 6.69989 39.8158 6.70665C40.2812 6.68892 40.7451 6.76964 41.1773 6.94353C41.6096 7.11743 42.0004 7.38061 42.3244 7.71596C42.6425 8.05522 42.8921 8.45301 43.0594 8.88736C43.2419 9.35685 43.3333 9.85694 43.3288 10.3608V11.2203H41.1412V10.4836C41.1492 10.0804 41.0205 9.68649 40.7762 9.36621C40.6624 9.21469 40.5141 9.09278 40.3435 9.01073C40.173 8.92867 39.9853 8.88888 39.7962 8.89472C39.2524 8.89472 38.8914 9.05843 38.7134 9.38586C38.5217 9.78416 38.4301 10.2234 38.4464 10.6653V18.4893C38.4324 18.8828 38.5329 19.2718 38.7355 19.6091C38.929 19.9087 39.2744 20.0585 39.7766 20.0585C39.9329 20.0564 40.088 20.0316 40.2372 19.9849C40.4049 19.9331 40.5612 19.8497 40.6978 19.7393C40.8378 19.6065 40.9473 19.4448 41.0187 19.2653C41.1122 19.0262 41.1563 18.7706 41.1485 18.5139V17.7624L43.3435 17.7722Z" fill="white"/>
<path d="M45.1221 22.1361V6.82945H48.6449C51.2171 6.82945 52.5033 8.32745 52.5033 11.3235C52.5246 12.1103 52.3828 12.893 52.0868 13.622C51.7806 14.2813 51.2632 14.819 50.6169 15.1495L52.9761 22.1361H50.6537L48.6179 15.6014H47.3097V22.1361H45.1221ZM47.3097 8.89473V13.6662H48.5542C48.8693 13.6794 49.1836 13.6241 49.4754 13.5042C49.6949 13.4054 49.8812 13.245 50.0119 13.0425C50.1383 12.8142 50.2214 12.5644 50.2568 12.3058C50.3418 11.6274 50.3418 10.941 50.2568 10.2626C50.2273 9.99484 50.144 9.73587 50.0119 9.50131C49.7399 9.09856 49.2255 8.89964 48.4685 8.89964L47.3097 8.89473Z" fill="white"/>
<path d="M55.9085 22.1361V15.6652L52.9075 6.82452H55.2226L56.9742 12.9148H57.0158L58.7748 6.82944H61.0898L58.0888 15.6701V22.141L55.9085 22.1361Z" fill="white"/>
<path d="M62.1922 22.136V6.8294H65.4725C66.0115 6.82316 66.5479 6.90613 67.0599 7.07497C67.5368 7.24663 67.9636 7.53439 68.302 7.91238C68.6721 8.30968 68.9374 8.79336 69.0737 9.31951C69.2368 10.0352 69.3093 10.7688 69.2893 11.5027C69.2967 12.0853 69.2574 12.6675 69.1717 13.2438C69.0926 13.7165 68.9211 14.1688 68.667 14.5748C68.3781 15.0661 67.9637 15.4713 67.4666 15.7487C66.8545 16.0513 66.1764 16.1949 65.4945 16.1661H64.3774V22.1434L62.1922 22.136ZM64.3774 8.89467V14.0959H65.4284C65.7819 14.115 66.1348 14.0485 66.4573 13.9019C66.6896 13.7858 66.878 13.597 66.9938 13.3641C67.118 13.1176 67.1873 12.847 67.1971 12.5709C67.2192 12.2541 67.2314 11.903 67.2314 11.5174C67.2314 11.1319 67.2314 10.8175 67.2094 10.4958C67.2018 10.2025 67.136 9.91368 67.0158 9.64613C66.9079 9.40958 66.7277 9.21352 66.5014 9.08623C66.1953 8.94291 65.8588 8.87712 65.5215 8.89467H64.3774Z" fill="white"/>
<path d="M72.3539 22.1361V8.89473H69.8257V6.82945H77.0624V8.89473H74.5416V22.1361H72.3539Z" fill="white"/>
<path d="M78.0423 22.1361V6.82945H80.23V19.9431H84.5612V22.1361H78.0423Z" fill="white"/>
<path d="M86.036 22.1361V6.82945H88.2237V22.1361H86.036Z" fill="white"/>
<path d="M90.2178 10.4418C90.2058 9.8806 90.3153 9.32346 90.5387 8.80874C90.7365 8.3571 91.0289 7.9534 91.3961 7.62507C91.7393 7.32453 92.1356 7.09129 92.5647 6.93746C93.4162 6.62306 94.3516 6.62306 95.2031 6.93746C95.6372 7.0946 96.0403 7.32738 96.3937 7.62507C96.7488 7.95924 97.0329 8.36185 97.2291 8.80874C97.4512 9.32388 97.5606 9.88072 97.55 10.4418V11.2154H95.3623V10.4418C95.3795 10.2263 95.349 10.0096 95.2733 9.80714C95.1975 9.60469 95.0782 9.42146 94.9238 9.27042C94.6315 9.02741 94.2636 8.8944 93.8839 8.8944C93.5041 8.8944 93.1363 9.02741 92.8439 9.27042C92.688 9.42041 92.5675 9.60342 92.4912 9.80609C92.4149 10.0088 92.3848 10.226 92.403 10.4418V18.5237C92.3848 18.7395 92.4149 18.9567 92.4912 19.1594C92.5675 19.3621 92.688 19.5451 92.8439 19.6951C93.1363 19.9381 93.5041 20.0711 93.8839 20.0711C94.2636 20.0711 94.6315 19.9381 94.9238 19.6951C95.0782 19.544 95.1975 19.3608 95.2733 19.1583C95.349 18.9559 95.3795 18.7392 95.3623 18.5237V15.6431H93.6254V13.708H97.5451V18.5237C97.56 19.0923 97.4504 19.6572 97.2242 20.1788C97.0275 20.6126 96.743 21.0006 96.3888 21.3183C96.0402 21.6281 95.6362 21.8689 95.1982 22.028C94.3467 22.3424 93.4113 22.3424 92.5598 22.028C92.1269 21.872 91.7296 21.6307 91.3912 21.3183C91.0251 21.0065 90.7323 20.6174 90.5338 20.1788C90.3064 19.6576 90.1968 19.0924 90.2129 18.5237L90.2178 10.4418Z" fill="white"/>
<path d="M99.4805 22.1361V6.82945H101.668V13.3863H104.363V6.82945H106.548V22.1361H104.363V15.3214H101.668V22.1361H99.4805Z" fill="white"/>
<path d="M110.051 22.1361V8.89473H107.521V6.82945H114.77V8.89473H112.239V22.1361H110.051Z" fill="white"/>
<path d="M14.4489 28.968C22.4287 28.968 28.8977 22.4833 28.8977 14.484C28.8977 6.4847 22.4287 0 14.4489 0C6.46897 0 0 6.4847 0 14.484C0 22.4833 6.46897 28.968 14.4489 28.968Z" fill="url(#paint0_linear_80_1018)"/>
<path d="M14.3092 22.2736C18.6009 22.2736 22.0799 18.7861 22.0799 14.484C22.0799 10.1819 18.6009 6.69435 14.3092 6.69435C10.0176 6.69435 6.53848 10.1819 6.53848 14.484C6.53848 18.7861 10.0176 22.2736 14.3092 22.2736Z" fill="url(#paint1_linear_80_1018)"/>
<path d="M14.3092 22.2736C18.6009 22.2736 22.0799 18.7861 22.0799 14.484C22.0799 10.1819 18.6009 6.69435 14.3092 6.69435C10.0176 6.69435 6.53848 10.1819 6.53848 14.484C6.53848 18.7861 10.0176 22.2736 14.3092 22.2736Z" fill="white" fill-opacity="0.3"/>
<path d="M19.7355 16.8734V17.5242C18.7728 18.6199 17.7436 19.6549 16.6537 20.6234C15.8227 21.3622 14.9006 21.9911 13.9099 22.4946C13.1093 22.9099 12.2242 23.1351 11.3229 23.1528C10.678 23.1703 10.0395 23.0215 9.46843 22.7206C8.95473 22.4376 8.54514 21.9969 8.29988 21.4632C8.02176 20.8467 7.8869 20.175 7.90547 19.4986C7.91142 18.8589 8.00708 18.2232 8.18964 17.6102C8.39344 16.9121 8.6693 16.2372 9.01277 15.5965C9.40478 14.867 9.84766 14.1662 10.3381 13.4992C10.8591 12.7773 11.4732 12.0192 12.1804 11.2252C12.8523 10.4654 13.5768 9.75397 14.3484 9.09609C14.9561 8.57515 15.605 8.10456 16.2886 7.68895C16.799 7.38138 17.3391 7.12631 17.9006 6.92766C18.2938 6.78294 18.707 6.70011 19.1255 6.68209C19.4273 6.6745 19.7241 6.76024 19.9756 6.92766C20.2201 7.10368 20.4075 7.34795 20.5145 7.63002C20.6476 7.96749 20.7125 8.32807 20.7056 8.69089C20.7056 9.44562 20.4492 10.2855 19.9364 11.2105C19.3959 12.1713 18.7518 13.0697 18.0157 13.8897C17.3498 14.6569 16.616 15.3621 15.8232 15.9967C15.1274 16.5419 14.6261 16.8145 14.319 16.8145C14.1033 16.8109 13.8975 16.7227 13.7458 16.5689C13.6644 16.501 13.5986 16.4162 13.5529 16.3204C13.5073 16.2246 13.4828 16.1201 13.4812 16.0139C13.4812 15.6308 13.6821 15.1716 14.0838 14.6313C14.4795 14.0973 14.9213 13.5993 15.4043 13.1432C15.8795 12.6913 16.1637 12.4678 16.2592 12.4678C16.3058 12.4678 16.3278 12.4875 16.3278 12.5268C16.313 12.6365 16.2772 12.7424 16.2225 12.8386C16.1751 12.9234 16.1397 13.0143 16.1172 13.1088C16.1172 13.1604 16.1392 13.1874 16.1784 13.1874C16.2911 13.1874 16.6169 12.8853 17.1583 12.2763C17.7106 11.6519 18.2065 10.9796 18.6404 10.2675C19.0912 9.53895 19.3166 8.93974 19.3166 8.46988C19.3271 8.31173 19.283 8.15477 19.1916 8.02539C19.1454 7.97221 19.0875 7.93053 19.0225 7.90368C18.9574 7.87683 18.887 7.86553 18.8168 7.87068C18.3481 7.87068 17.6401 8.24886 16.6929 9.00523C15.6314 9.87594 14.6545 10.8454 13.7752 11.9005C12.8171 13.0151 11.981 14.2295 11.2813 15.5228C10.628 16.7703 10.3014 17.8688 10.3014 18.8184C10.2875 19.2872 10.371 19.7538 10.5463 20.1887C10.6956 20.5388 10.9466 20.8357 11.2666 21.0408C11.6112 21.249 12.0085 21.3531 12.4106 21.3404C13.3758 21.3404 14.4717 20.9631 15.6982 20.2083C17.1661 19.2542 18.5206 18.1353 19.7355 16.8734Z" fill="white"/>
<defs>
<linearGradient id="paint0_linear_80_1018" x1="-1.88463" y1="-1.96393" x2="33.6644" y2="1.45558" gradientUnits="userSpaceOnUse">
<stop stop-color="#26BAED"/>
<stop offset="0.197917" stop-color="#4F94FB"/>
<stop offset="1" stop-color="#DB26F9"/>
</linearGradient>
<linearGradient id="paint1_linear_80_1018" x1="5.52491" y1="5.63813" x2="24.6435" y2="7.47718" gradientUnits="userSpaceOnUse">
<stop stop-color="#26BAED"/>
<stop offset="0.197917" stop-color="#4F94FB"/>
<stop offset="1" stop-color="#DB26F9"/>
</linearGradient>
</defs>
</svg>
