<svg width="239" height="39" viewBox="0 0 239 39" fill="none" xmlns="http://www.w3.org/2000/svg">
<g clip-path="url(#clip0_56_207)">
<path d="M49.8344 39.0215C46.3157 39.2925 42.8014 38.4437 39.7933 36.5963C38.6934 35.7044 37.8266 34.5582 37.2676 33.2565C36.7086 31.9548 36.4742 30.5366 36.5846 29.124C36.585 28.2929 36.6802 27.4646 36.8683 26.6551H44.2464C44.2464 27.0702 44.2464 27.4416 44.1154 27.8131C43.9844 28.1845 44.1154 28.4904 44.1154 28.7525C44.0402 29.4447 44.1828 30.1431 44.5232 30.7502C44.8637 31.3573 45.385 31.8429 46.0145 32.1391C47.6451 32.784 49.3922 33.0817 51.1442 33.0131H54.0473C55.9923 33.1832 57.941 32.7319 59.6136 31.724C60.2304 31.1024 60.6982 30.3488 60.9818 29.5199C61.2653 28.6911 61.3573 27.8087 61.2507 26.9391V5.70215H68.6506V26.9391C68.7269 29.253 68.3025 31.556 67.4064 33.6904C66.5598 35.4943 65.0739 36.9192 63.2371 37.6887C60.7116 38.6869 58.0042 39.1411 55.2916 39.0215H49.8344Z" fill="white"/>
<path d="M71.3792 38.7811L86.2662 5.70215H97.6825L112.57 38.7811H104.515L101.371 31.7896H82.5553L79.412 38.7811H71.3792ZM85.2402 25.6719H98.6866L92.269 11.3828H91.6796L85.2402 25.6719Z" fill="white"/>
<path d="M122.916 38.7811V26.9828L105.453 5.70215H114.643L126.692 20.6904L138.72 5.70215H147.866L130.403 26.9391V38.7811H122.916Z" fill="white"/>
<path d="M200.713 38.7811V5.70215H208.2L231.578 29.4517V5.70215H239.066V38.7811H231.578L208.2 14.966V38.7811H200.713Z" fill="white"/>
<path d="M0 17.9378H28.377C28.4696 17.9378 28.5585 17.9746 28.624 18.0402C28.6895 18.1057 28.7263 18.1947 28.7263 18.2874V39.0219H23.4874V22.242H17.2008V0H12.0493V22.242H5.217V39.0219H0V17.9378Z" fill="white"/>
<path d="M189.056 9.78847C185.826 6.9627 181.162 5.5498 175.064 5.5498H166.748C160.636 5.5498 155.964 6.9627 152.734 9.78847C149.615 13.2196 147.887 17.6913 147.887 22.3297C147.887 26.968 149.615 31.4397 152.734 34.8708C156.627 37.9047 161.496 39.405 166.42 39.0876H175.304C180.249 39.411 185.141 37.911 189.056 34.8708C192.189 31.4466 193.926 26.9723 193.926 22.3297C193.926 17.687 192.189 13.2127 189.056 9.78847ZM186.153 25.3011C186.014 26.4869 185.623 27.629 185.005 28.6505C184.388 29.6719 183.558 30.5488 182.573 31.2221C180.137 32.5987 177.355 33.2435 174.562 33.0792H173.755V25.3011H167.752V33.0792H167.381C164.553 33.2474 161.735 32.603 159.261 31.2221C158.269 30.5532 157.434 29.6778 156.813 28.6558C156.191 27.6339 155.797 26.4895 155.659 25.3011H167.752V19.2927H155.659C155.806 18.1128 156.204 16.978 156.825 15.9644C157.446 14.9507 158.277 14.0817 159.261 13.4154C161.696 12.0584 164.467 11.4219 167.25 11.5801H174.562C177.345 11.4279 180.114 12.064 182.552 13.4154C183.533 14.0848 184.361 14.9546 184.982 15.9677C185.602 16.9807 186.002 18.114 186.153 19.2927H173.755V25.3011H186.153Z" fill="white"/>
<path d="M19.7766 26.3496H9.03699V35.0673H19.7766V26.3496Z" fill="white"/>
</g>
<defs>
<clipPath id="clip0_56_207">
<rect width="239" height="39" fill="white"/>
</clipPath>
</defs>
</svg>
